<?xml version="1.0" encoding="UTF-8"?>
<!DOCTYPE svg PUBLIC "-//W3C//DTD SVG 1.1//EN" "http://www.w3.org/Graphics/SVG/1.1/DTD/svg11.dtd">
<!-- Creator: CorelDRAW -->
<svg xmlns="http://www.w3.org/2000/svg" xml:space="preserve" width="44.0266mm" height="44.0266mm" style="shape-rendering:geometricPrecision; text-rendering:geometricPrecision; image-rendering:optimizeQuality; fill-rule:evenodd; clip-rule:evenodd"
viewBox="0 0 44.0266 44.0266"
 xmlns:xlink="http://www.w3.org/1999/xlink">
 <defs>
  <style type="text/css">
   <![CDATA[
    .fil22 {fill:#1BC5D8}
    .fil32 {fill:#1DBBB4}
    .fil18 {fill:#23C3D9}
    .fil10 {fill:#25B6B3}
    .fil21 {fill:#28B9D8}
    .fil16 {fill:#29A9C9}
    .fil27 {fill:#2A98BB}
    .fil11 {fill:#2AB9E5}
    .fil13 {fill:#2BB3B3}
    .fil29 {fill:#2C9BC4}
    .fil30 {fill:#2CB6EB}
    .fil14 {fill:#2DB6E4}
    .fil8 {fill:#33B4E4}
    .fil19 {fill:#3788B7}
    .fil40 {fill:#39394E}
    .fil2 {fill:#394E6F}
    .fil35 {fill:#3A86A9}
    .fil25 {fill:#3B79AB}
    .fil36 {fill:#424242}
    .fil24 {fill:#4469A4}
    .fil26 {fill:#45669B}
    .fil7 {fill:#476887}
    .fil9 {fill:#484847}
    .fil33 {fill:#484877}
    .fil20 {fill:#485898}
    .fil17 {fill:#4A498B}
    .fil37 {fill:#4A4A4A}
    .fil5 {fill:#4E4E4E}
    .fil3 {fill:#4F5170}
    .fil6 {fill:#4F6775}
    .fil4 {fill:#4F8896}
    .fil31 {fill:#4F91AB}
    .fil39 {fill:#505150}
    .fil1 {fill:#517290}
    .fil38 {fill:#525252}
    .fil12 {fill:#535454}
    .fil23 {fill:#553786}
    .fil15 {fill:#56347C}
    .fil28 {fill:#592B83}
    .fil34 {fill:#6F718F}
    .fil41 {fill:#9CA3CD}
    .fil0 {fill:#ACACAC}
   ]]>
  </style>
 </defs>
 <g id="Capa_x0020_1">
  <metadata id="CorelCorpID_0Corel-Layer"/>
  <g id="_564947600">
   <path id="_564947264" class="fil0" d="M33.0005 38.2775c-0.5222,0.0888 -0.3601,0.1598 -0.2695,-0.4135 -0.2282,0.3779 -0.5022,-0.5512 -0.1042,0.6131 0.7598,0.0624 0.0739,0.0503 0.3737,-0.1996z"/>
   <path id="_564947312" class="fil0" d="M36.6359 11.7022c0.3115,0.2248 -0.4523,0.4211 0.5005,0.1198 0.1732,-0.8945 0.0564,-0.0726 -0.1388,-0.4355 0.0765,0.5449 0.1852,0.4269 -0.3617,0.3157z"/>
  </g>
  <g id="_564947624">
   <path id="_564941560" class="fil1" d="M34.1234 9.907l-0.5286 0.1198c-0.3083,0.2857 -0.4669,0.4893 -0.7392,0.8162 -0.6481,0.778 -0.4455,0.2571 -0.4283,1.1305l1.6961 -2.0665z"/>
   <polygon id="_564941584" class="fil1" points="24.0114,38.632 23.7975,38.0769 22.3223,38.1935 22.3746,38.6303 "/>
  </g>
  <g id="_564947576">
   <path id="_564936848" class="fil2" d="M29.3186 6.9949l0.2093 0.1813c0.5839,-0.8883 0.3242,-1.2384 1.3548,-0.8607 0.2802,0.7243 0.1898,0.3671 -0.0615,1.1428l0.2572 0.2523 0.3865 -1.3234c-0.7178,-0.6821 -0.4493,-0.7116 -1.5497,-0.6295l-0.5966 1.2372z"/>
   <path id="_564936104" class="fil2" d="M36.6854 30.4852l-0.0021 0.1064c0.4838,0.5296 0.6634,0.5145 1.4349,0.2702 0.3501,-0.889 0.3483,-0.4411 0.184,-1.4093l-0.858 -0.314 -0.0889 0.1784c0.5132,0.4247 0.808,0.2459 0.5198,1.0615 -0.665,0.3337 -0.3692,0.1288 -1.1897,0.1068z"/>
   <path id="_564941392" class="fil2" d="M35.6231 11.1791c-0.1111,0.3364 -0.1516,0.2285 0.2271,0.2459l0.4849 -0.2114 0.3008 0.4886c0.5469,0.1112 0.4382,0.2292 0.3617,-0.3157l-0.409 -0.7801 -0.9655 0.5727z"/>
  </g>
  <g id="_564947696">
   <path id="_564933384" class="fil3" d="M37.6439 17.4264l-0.3438 0.1322 0.2707 0.1666 1.9305 0.1055 -0.6925 1.3649 1.0699 -0.4843c0.3664,-2.083 -0.9123,-1.4858 -2.2348,-1.2849z"/>
   <path id="_564932760" class="fil3" d="M25.7784 6.2838l0.2029 0.1706c0.3321,-0.8894 0.1786,-1.548 1.1234,-1.7593l0.4666 0.6602c-0.017,0.0619 -0.0272,0.1536 -0.0159,0.1918 0.0103,0.0354 0.1018,0.169 0.1129,0.137 0.0159,-0.046 0.1607,0.0562 0.2418,0.082l-0.1249 -1.1849c-0.762,-0.4295 -0.5306,-0.3405 -1.3693,-0.2271 -0.5066,0.578 -0.6597,1.1855 -0.6375,1.9297z"/>
   <polygon id="_564933120" class="fil3" points="38.1965,25.7562 39.2908,26.794 38.2622,27.3868 39.3099,27.3984 39.7846,25.9346 38.0438,25.3445 "/>
   <path id="_564940984" class="fil3" d="M32.3536 34.4229l-0.199 0.1821 0.893 1.2945c-0.5497,0.6618 -0.2813,0.0583 -0.5231,0.859 0.6211,-0.2158 0.764,-0.3372 1.1098,-0.905l-1.2807 -1.4306z"/>
  </g>
  <g id="_564947792">
   <path id="_390900544" class="fil4" d="M31.0784 7.7106l-0.2572 -0.2523 -1.0467 1.6303 -0.7241 -0.2605c-0.2079,-0.6577 0.2131,-0.929 0.4775,-1.6519l-0.2093 -0.1813c-0.5327,0.4537 -0.8289,1.0919 -0.8403,1.7889 0.5457,0.6712 0.6069,0.6517 1.525,0.7236l1.0751 -1.7968z"/>
   <path id="_390901048" class="fil4" d="M35.3552 12.9216c-0.9404,0.2698 -0.8081,0.5993 -1.3161,0.1817l0.8731 -0.877 0.938 -0.8013c-0.3787,-0.0174 -0.3382,0.0905 -0.2271,-0.2459 -0.7524,0.4015 -1.6528,1.0606 -2.0918,1.8076l0.5465 0.8426c0.8682,-0.1383 0.8789,-0.259 1.2774,-0.9077z"/>
   <path id="_564933336" class="fil4" d="M36.9292 26.8516c-0.5166,-0.9268 -0.6425,-0.0208 -0.5184,-1.259 0.95,-0.2159 0.4777,-0.2349 1.1087,0.2051l0.677 -0.0415 -0.1527 -0.4117c-0.8174,-0.3816 -0.8788,-0.3969 -1.7289,-0.2602 -0.6616,0.8816 -0.7306,1.7811 0.6143,1.7673z"/>
   <path id="_564933024" class="fil4" d="M32.1546 34.605l0.199 -0.1821c-0.2984,-0.7823 -0.503,-1.022 -1.3319,-1.1807l-0.5282 0.5514c0.0047,0.7134 0.1393,0.9339 0.8275,1.1169l-0.2201 -1.2506 1.0537 0.9451z"/>
   <polygon id="_564933504" class="fil4" points="36.0366,19.0773 37.0498,19.6707 37.5517,19.0746 36.5968,19.0764 36.5337,18.2267 37.307,18.0046 37.5708,17.7252 37.3001,17.5586 36.7633,17.5945 36.1773,17.9383 "/>
   <path id="_564941176" class="fil4" d="M25.9813 6.4544l-0.2029 -0.1706 1.5327 1.0326c-0.6734,0.0791 0.0519,0.267 -1.4405,0.195l0.1107 -1.057z"/>
   <path id="_564940072" class="fil4" d="M27.9487 35.0904l0.0695 1.0003c0.5895,-0.1555 0.1327,0.1384 0.4189,-0.3713 0.0702,-0.1251 0.1486,-0.4292 0.4103,-0.8026l-0.0111 -0.1321 -0.8876 0.3057z"/>
   <path id="_564940312" class="fil4" d="M32.1461 9.8275l-0.1129 -0.1169c-0.7145,0.4008 -0.6762,0.3011 -0.8224,1.0701 0.7523,-0.2485 0.6012,-0.1833 0.9353,-0.9532z"/>
  </g>
  <g id="_564947648">
   <path id="_390900304" class="fil5" d="M13.554 4.4197c1.7374,-1.677 8.9611,-2.211 11.3222,-1.5428l5.3072 1.5717c-0.8738,-1.63 -6.5724,-2.254 -8.3901,-2.2794l-8.2393 2.2505z"/>
   <path id="_564946400" class="fil5" d="M12.2288 39.4722c-0.3774,-0.7145 -0.1766,-0.5766 -1.0256,-0.7629 0.3626,0.6368 0.2635,0.4642 1.0256,0.7629z"/>
  </g>
  <g id="_564947720">
   <path id="_390899472" class="fil6" d="M26.1794 36.5219l0.2641 2.7354 -0.8987 -0.469 0.2187 0.8112c0.7964,0.207 0.1799,0.2847 0.9759,-0.0305l0.6079 -0.3814 -0.9062 -3.2577c-0.3591,0.139 -0.282,-0.3376 -0.2617,0.592z"/>
   <path id="_390900832" class="fil6" d="M32.0332 9.7106l0.1129 0.1169c0.8516,-0.6089 1.1032,-1.5363 2.1755,-1.0287 -0.1499,1.117 -0.159,0.2706 -0.7268,1.228l0.5286 -0.1198c0.5888,-0.0918 0.5168,-0.3238 0.666,-0.8514 -0.5806,-1.2748 -0.6026,-0.4201 -1.248,-1.2544 -0.5325,0.7694 -1.1786,0.8835 -1.5082,1.9094z"/>
   <path id="_564933216" class="fil6" d="M38.0102 21.9346l-1.2279 -0.0971c0.3292,-0.7402 0.0795,-0.5284 1.0349,-0.5693l1.8424 -0.0507 0.7226 0.9296 -0.1069 -1.3022 -3.7641 0.3362 0.2511 1.012c1.3157,0.314 0.6434,0.248 1.2479,-0.2585z"/>
  </g>
  <g id="_564947528">
   <path id="_390899232" class="fil7" d="M29.9929 36.631c0.4111,0.789 0.5065,0.6289 0.139,1.2393 -0.7405,0.2703 -0.8478,-0.1194 -1.0148,-0.8692l0.8758 -0.3701zm-1.1455 -1.7142l0.9591 1.1352c-0.8657,0.853 -1.2029,0.2185 -1.2157,1.3695l0.9067 1.0542c0.8845,-0.0599 0.6996,-0.0341 1.3084,-0.6279 0.0076,-0.9926 -0.7664,-2.2266 -1.3161,-3.0772l-0.6535 0.0141 0.0111 0.1321z"/>
   <path id="_390899136" class="fil7" d="M32.2982 32.0172l2.9231 2.3956c0.5584,-0.2936 0.5351,-0.2141 0.8756,-0.7842 0.1906,-0.3191 0.2471,-0.4556 0.224,-0.851l-2.8127 -2.0774c0.5937,1.5474 2.4045,1.5913 2.0119,3.0078 -1.1349,0.4217 -1.9279,-1.7698 -3.2219,-1.6908z"/>
   <path id="_564936584" class="fil7" d="M36.1419 30.6665l0.5414 -0.0749 0.0021 -0.1064c-0.1015,-0.8285 -0.0566,-0.9034 0.6699,-1.1683l0.0889 -0.1784 -0.8296 -0.6049c-0.4069,0.0112 -0.2979,-0.0898 -0.2979,0.3306l0.242 0.4334c-0.434,0.8179 -0.4124,0.4367 -0.4168,1.3689z"/>
   <path id="_564940888" class="fil7" d="M36.7611 14.7308l0.0739 0.847 -0.5275 0.1965 0.2251 0.2081c0.7081,-0.0895 0.8723,-0.1596 1.328,-0.6485l-0.0657 -0.1408 -0.5554 -0.0175c-0.3066,-0.7987 -0.0883,-0.5194 -0.4977,-0.648l-0.6 -0.1196c1.2865,-0.1894 0.0832,-0.0523 0.6193,0.3228z"/>
  </g>
  <g id="_564947504">
   <path id="_390894096" class="fil8" d="M9.4838 17.8297l0.6792 -0.2925c0.5686,1.6718 1.0324,2.5118 1.2828,4.2549l-1.76 -0.0014 -0.6133 -1.8352c-0.4379,0.6806 -0.3524,1.1853 -0.336,2.0958l3.4989 0.0776c-0.191,-1.7823 0.321,-2.4707 0.7409,-4.0769 -0.3826,0.7066 -0.3184,0.3599 -0.8597,0.6582l-0.394 -1.3307c-0.4553,1.3837 0.104,0.2861 0.3713,1.547 0.2534,1.1959 -0.2316,1.0559 -1.0862,1.2899 -0.3312,-3.7047 -0.0912,-1.6548 -0.7945,-3.046l0.6993 -1.9189c-0.7212,0.5132 -1.1566,1.6562 -1.4287,2.5782z"/>
   <path id="_390894624" class="fil8" d="M22.5215 31.0035c-0.6938,0.471 -0.5422,0.1706 -1.1559,0.4755l-0.0453 2.9834 1.9814 -0.2184c0.8803,0.078 1.5019,-0.0254 2.1293,-0.606 -0.9006,-0.1789 -2.1059,0.1349 -2.9964,0.3952l-0.1368 -0.3517c-0.0208,-0.0556 -0.0401,-0.1165 -0.0637,-0.1791 -0.0244,-0.0647 -0.038,-0.119 -0.0637,-0.1859 -0.0289,-0.0753 -0.3039,-0.713 -0.3761,-0.8719 3.134,0.1152 2.1022,0.5145 3.0039,-0.085 -1.4818,-0.3935 -0.5474,-0.1046 -1.6931,-0.0176 -0.7785,0.0592 -0.8261,-0.0113 -1.3426,-0.4227 2.0541,-0.5592 1.6457,-0.2489 2.2309,-1.1632l-1.4719 0.2474z"/>
   <path id="_390894504" class="fil8" d="M29.1358 26.8176c-1.4174,1.0319 -1.3758,2.1982 -3.5993,3.0937l-0.0244 0.3254 0.6904 -0.2842 0.194 0.3218c0.0377,0.0548 0.1661,0.2676 0.2087,0.3179 0.385,0.4545 -0.1612,0.0953 0.4857,0.3418l0.0485 -1.2786c1.1147,-0.0962 0.8069,-0.2278 1.1433,-0.6293 0.4643,-0.554 1.111,-0.4554 1.8246,-1.5216 0.6489,-0.9695 0.0513,-1.1699 0.0509,-1.1704l-0.8026 1.444 -0.2198 -0.9605z"/>
  </g>
  <g id="_564947888">
   <path id="_390874616" class="fil9" d="M32.731 37.864c-0.0906,0.5733 -0.2527,0.5023 0.2695,0.4135 2.4491,-1.5163 4.1111,-3.5381 5.6333,-6.03 0.7913,-1.2954 1.4106,-2.6261 1.8752,-4.0717 0.4458,-1.3869 1.1289,-3.3564 0.6559,-4.8014 -0.2518,0.519 -0.6727,3.5563 -1.0247,4.6631 -0.4232,1.3302 -1.0272,2.7561 -1.7763,3.9459 -1.059,1.6821 -3.9044,5.3744 -5.6329,5.8806z"/>
   <path id="_390893760" class="fil9" d="M40.0707 16.0686l0.7995 2.8755 -0.1761 0.3085 0.409 1.272c0.3061,-0.7663 0.2931,-0.5203 0.1997,-1.1993 -0.1652,-1.2005 -0.514,-2.6692 -0.9117,-3.7956 -0.4248,-1.2029 -1.2114,-2.9774 -1.9176,-4.0297 -1.4074,-2.0975 -3.6083,-4.7548 -5.7976,-5.8969 2.731,3.0451 6.1888,5.4054 7.3948,10.4655z"/>
   <path id="_390894336" class="fil9" d="M24.796 41.2899l-1.1494 0.0039c-0.6768,0.6521 -4.6933,0.1177 -5.8269,-0.1027 -1.8884,-0.3672 -3.1962,-1.0874 -4.9145,-1.5972 1.8697,1.1467 1.6935,1.2 3.8589,1.7446 3.9963,1.005 10.6073,0.6867 13.4986,-1.4962 -0.4897,-0.1138 -0.3725,-0.1395 -0.7478,-0.0189 -1.7018,0.5464 -1.3001,0.8131 -4.7189,1.4665z"/>
   <path id="_390899184" class="fil9" d="M1.9812 20.5244c0.3297,-0.6318 0.7712,-3.5971 1.1891,-4.8179 0.86,-2.5131 2.652,-5.596 4.4886,-7.3867 0.684,-0.667 2.8464,-1.7827 2.8183,-2.7138l-5.8765 6.0523c-1.1131,1.7221 -3.4503,7.1297 -2.6195,8.8661z"/>
   <path id="_390898968" class="fil9" d="M9.397 37.9849l1.151 0.4188c-0.6357,-1.0997 -3.8913,-3.1309 -4.0689,-4.2625 -3.1342,-2.1978 -4.1996,-10.1743 -4.4979,-10.7456l2.2821 8.4424c0.8035,2.037 4.8491,5.7199 5.1337,6.1469z"/>
  </g>
  <g id="_564947840">
   <path id="_389742560" class="fil10" d="M22.499 17.3189l1.1362 0.0996c0.4417,0.7185 0.0466,0.2944 0.859,1.3039 -0.9097,0.2269 -0.2344,-0.1459 -1.0771,0.2078l-0.0426 -1.3987 -0.8755 -0.2126zm1.9655 3.754l0.9897 -1.8735c0.5397,-0.9158 0.5842,-0.3409 0.6725,-1.6857 -0.2603,-1.1933 -3.4446,-2.3065 -4.8859,-2.217l0.004 3.3003c1.7849,0.4785 2.4255,0.7187 3.2197,2.4759z"/>
   <path id="_388410864" class="fil10" d="M16.8534 27.0652c0.3658,0.7154 1.3214,1.2089 2.1233,1.241l3.6032 -0.1269 1.6148 -0.6129 -1.2813 -0.5454c0.7345,-0.5642 1.7004,-1.0899 1.9605,-1.7057 -1.5186,-0.3156 -1.1706,-0.4536 -2.0521,0.3273 -1.1111,0.9843 -0.5103,0.6349 -0.4674,0.8586 0.129,0.672 0.2639,-0.1061 -0.0422,0.3762l-0.7128 -0.918 -1.1259 0.0174c0.4401,1.258 0.4569,0.3945 0.4588,1.3206 -2.1701,-0.7523 -1.9173,-1.1295 -3.0453,-0.6601l-1.596 -1.1008 0.5624 1.5287z"/>
   <path id="_390899352" class="fil10" d="M16.8914 23.5402l0.1982 -0.2944c0.3416,-0.8197 0.0494,0.1246 0.0819,-1.0113 -1.8349,0.385 -1.0304,0.1344 -2.6793,0.2565 0.4037,1.2824 0.6389,0.1831 1.1811,-0.2565 0.5902,1.3439 -0.014,1.208 -0.2635,1.4824 -0.4014,0.4413 -0.0975,-0.2163 -0.287,0.5228l0.335 0.4823c1.0881,-0.3467 0.7266,-0.0656 1.4336,-1.1818z"/>
  </g>
  <g id="_564947456">
   <path id="_40132000" class="fil11" d="M27.2786 15.3132c1.5373,1.3825 2.4022,2.8757 2.8636,4.9649 0.2486,1.1255 0.2313,2.3653 0.0023,3.4902 -0.2126,1.0445 -0.8947,2.0893 -1.0087,3.0493l0.2198 0.9605 0.8026 -1.444c0.0004,0.0005 0.598,0.2009 -0.0509,1.1704 -0.7136,1.0662 -1.3603,0.9676 -1.8246,1.5216 -0.3364,0.4015 -0.0286,0.5331 -1.1433,0.6293l-0.0485 1.2786c-0.6469,-0.2465 -0.1007,0.1127 -0.4857,-0.3418 -0.0426,-0.0503 -0.171,-0.2631 -0.2087,-0.3179l-0.194 -0.3218 -0.6904 0.2842 -1.5187 0.5194c-0.5852,0.9143 -0.1768,0.604 -2.2309,1.1632 0.5165,0.4114 0.5641,0.4819 1.3426,0.4227 1.1457,-0.087 0.2113,-0.3759 1.6931,0.0176 -0.9017,0.5995 0.1301,0.2002 -3.0039,0.085 0.0722,0.1589 0.3472,0.7966 0.3761,0.8719 0.0257,0.0669 0.0393,0.1212 0.0637,0.1859 0.0236,0.0626 0.0429,0.1235 0.0637,0.1791l0.1368 0.3517c0.8905,-0.2603 2.0958,-0.5741 2.9964,-0.3952l0.4615 0.0273c1.2269,-0.5456 1.8884,-0.89 2.9781,-1.7119 0.7934,-0.5985 1.6211,-1.7005 2.341,-2.1432l1.9006 -3.3431c-0.0146,-0.941 0.5011,-2.3416 0.5775,-3.5635 0.0857,-1.3702 -0.2785,-2.933 -0.1599,-3.9671 -0.4864,-0.5891 -0.7404,-1.6855 -1.1213,-2.4748 -0.3342,-0.6924 -0.9108,-1.53 -1.3699,-2.1598 -0.7108,-0.975 -2.4239,-2.8347 -3.7241,-2.9929 -0.092,-0.0012 -0.6256,-0.0408 -0.6976,-0.0356 -0.7204,0.0517 -0.0325,-0.1218 -0.5998,0.1735l2.7847 1.9801 -3.1214 -1.3375 -0.4781 0.8436 0.5527 0.3632c1.3397,0.0513 0.8593,0.2856 1.7627,0.6096l0.1491 1.5115 -0.3882 -0.1042z"/>
   <path id="_563803096" class="fil11" d="M13.4869 13.9533c0.4018,-0.0561 -0.0176,0.0939 0.0223,-0.1486l0.139 -0.5956 1.76 0.3631 -1.0808 1.9982 -0.8405 -1.6171zm-0.2864 -1.3022c-0.7568,0.2127 -2.1291,1.7411 -2.288,2.6004l-0.6993 1.9189c0.7033,1.3912 0.4633,-0.6587 0.7945,3.046 0.8546,-0.234 1.3396,-0.094 1.0862,-1.2899 -0.2673,-1.2609 -0.8266,-0.1633 -0.3713,-1.547l0.394 1.3307c0.5413,-0.2983 0.4771,0.0484 0.8597,-0.6582 0.4797,-0.5477 0.8701,-1.4188 1.4588,-2.0736 0.6378,-0.7092 1.3185,-1.1519 2.1378,-1.7375 -0.4763,-0.5752 -0.5719,0.4788 -0.3386,-0.6857l3.2514 -1.5678c0.4763,-0.2031 0.0031,0.1252 0.5453,-0.3204 -2.2376,-0.0277 -1.6675,0.165 -3.3752,-0.4957l1.1739 1.3763c-1.2843,0.1881 -0.7577,0.296 -1.4647,-0.4808 -2.1018,0.8894 -2.0538,1.1845 -2.4019,0.6812l-0.7626 -0.0969z"/>
   <path id="_390894360" class="fil11" d="M9.0725 19.9555l0.6133 1.8352 1.76 0.0014c-0.2504,-1.7431 -0.7142,-2.5831 -1.2828,-4.2549l-0.6792 0.2925c-0.3513,0.6101 -0.5205,1.4883 -0.4113,2.1258z"/>
  </g>
  <path class="fil12" d="M42.3191 22.4326c-0.2141,12.1769 -11.0636,21.5224 -22.7363,20.2624 -2.8399,-0.3065 -9.1703,-2.1786 -10.2785,-4.0712 -2.4399,-1.2642 -5.1167,-5.0112 -6.3281,-7.472 -1.79,-3.6363 -2.4215,-7.2616 -1.9982,-11.3082 0.7489,-7.1592 4.7208,-12.5634 10.7443,-16.0418 12.4413,-7.1845 30.6648,1.5286 30.5968,18.6308zm-42.3192 -2.9552l0 5.1007c0.6705,1.5426 0.6487,4.3937 2.6227,7.7981 1.2664,2.1844 2.7586,4.2533 4.7118,5.8583 15.691,12.8931 35.8601,0.9874 35.8377,-16.2211 -0.0146,-11.2244 -9.0022,-21.0177 -20.2932,-21.5118 -5.1675,-0.2261 -11.8306,1.5305 -15.5025,5.3288 -1.9216,1.9877 -3.2821,3.1917 -4.6407,5.7163 -2.4924,4.6317 -1.874,5.9279 -2.7358,7.9307z"/>
  <path class="fil13" d="M14.4922 22.491c1.6489,-0.1221 0.8444,0.1285 2.6793,-0.2565 -0.0325,1.1359 0.2597,0.1916 -0.0819,1.0113l-0.1982 0.2944c-0.707,1.1162 -0.3455,0.8351 -1.4336,1.1818l-0.335 -0.4823c0.1895,-0.7391 -0.1144,-0.0815 0.287,-0.5228 0.2495,-0.2744 0.8537,-0.1385 0.2635,-1.4824 -0.5422,0.4396 -0.7774,1.5389 -1.1811,0.2565zm9.9723 -1.4181c0.9409,4.3767 -5.2034,6.7266 -6.698,1.0157 -1.0057,-0.0992 -2.5105,-0.2375 -3.3602,0.1468l0.1166 1.3177c0.6104,1.3565 0.8948,2.8249 2.3305,3.5121l-0.5624 -1.5287 1.596 1.1008c1.128,-0.4694 0.8752,-0.0922 3.0453,0.6601 -0.0019,-0.9261 -0.0187,-0.0626 -0.4588,-1.3206l1.1259 -0.0174 0.7128 0.918c0.3061,-0.4823 0.1712,0.2958 0.0422,-0.3762 -0.0429,-0.2237 -0.6437,0.1257 0.4674,-0.8586 0.8815,-0.7809 0.5335,-0.6429 2.0521,-0.3273 -0.2601,0.6158 -1.226,1.1415 -1.9605,1.7057l1.2813 0.5454 -1.6148 0.6129 -3.6032 0.1269c0.9651,0.9061 3.1485,0.5835 4.4241,0.2004 2.0297,-0.8173 3.6129,-2.1954 4.2924,-4.3547 0.6454,-2.0513 0.3352,-5.4166 -1.5665,-6.6382 -0.0883,1.3448 -0.1328,0.7699 -0.6725,1.6857l-0.9897 1.8735z"/>
  <path class="fil14" d="M13.2005 12.6511l0.7626 0.0969c0.3481,0.5033 0.3001,0.2082 2.4019,-0.6812 0.707,0.7768 0.1804,0.6689 1.4647,0.4808l-1.1739 -1.3763c1.7077,0.6607 1.1376,0.468 3.3752,0.4957 -0.5422,0.4456 -0.069,0.1173 -0.5453,0.3204l-3.2514 1.5678c-0.2333,1.1645 -0.1377,0.1105 0.3386,0.6857 2.0317,-1.1043 6.7314,-2.0554 8.3704,-0.3579 0.9857,0.24 1.5521,0.7972 2.3353,1.4302l0.3882 0.1042 -0.1491 -1.5115c-0.9034,-0.324 -0.423,-0.5583 -1.7627,-0.6096l-0.5527 -0.3632 0.4781 -0.8436 3.1214 1.3375 -2.7847 -1.9801c0.5673,-0.2953 -0.1206,-0.1218 0.5998,-0.1735 0.072,-0.0052 0.6056,0.0344 0.6976,0.0356 -0.9758,-1.1733 -3.3252,-1.518 -4.8598,-1.7076 -2.5824,-0.3507 -7.8428,0.7871 -9.2542,3.0497z"/>
  <path class="fil15" d="M10.125 36.33c0.2646,1.1774 5.0314,2.9843 6.3839,3.2657l-0.2352 -0.8761c0.8635,-0.3132 0.8479,-0.2119 1.7691,0.1023 0.8701,-0.8337 0.3781,-0.5956 2.8988,-0.64l-0.1377 1.6559c-0.421,-0.0333 -0.8039,-0.0928 -1.2044,-0.1358 -0.0761,-0.0082 -0.6411,-0.0673 -0.6843,-0.0616 -1.1707,0.1536 -0.3609,-0.0364 -0.8632,0.3944l3.1895 0.2622 -0.0665 -3.5337c-2.6906,0.4899 -4.9339,-1.2405 -6.8976,-1.4561l-0.0238 0.6157 -1.0642 0.1821 1.0116 1.3834c-1.4783,-0.3884 -3.0548,-0.5508 -3.6358,-1.6056l-0.4402 0.4472z"/>
  <path class="fil16" d="M5.4721 12.8969l0.6916 0.7966c0.7154,-0.7715 -0.0628,-0.4789 1.1096,-0.9406 0.4063,0.6208 0.3292,0.8394 0.4045,1.6161 0.6357,-0.154 0.5384,-0.6026 1.2018,-1.2983 0.8828,-0.9257 0.5385,-1.2974 1.6997,-1.4132 1.1418,-0.6624 1.5204,-1.5817 3.0678,-2.1829 -0.6013,-0.7297 -0.085,-0.5769 -1.0982,-0.2927 -3.7375,1.0484 -1.5017,-0.6039 -3.8863,0.7098l0.0366 -0.8606c-1.2639,0.6928 -2.396,2.5363 -3.2271,3.8658z"/>
  <path class="fil17" d="M4.967 30.0943c0.4579,1.5648 1.9901,2.836 2.319,3.9114 0.6401,0.376 0.4843,0.694 1.2324,0.9985l0.9598 -0.0146 0.6258 -0.7013 1.9825 0.2211c-0.297,-0.8359 -0.733,-0.3493 -0.4188,-0.9546l-1.4554 -1.5853 -1.5818 -2.0216c-0.2057,0.4061 -0.2962,0.9732 -0.376,0.7904 -0.0157,-0.036 -0.0627,0.1179 -0.0979,0.1746l-1.4805 0.1771c-0.5195,-0.6376 -0.8366,-0.8002 -1.7091,-0.9957z"/>
  <path class="fil18" d="M13.8273 5.3447c-0.6695,0.3492 -1.6615,0.7082 -2.0189,1.2611l0.074 1.2725c1.1642,-0.7218 -0.3016,-0.2024 1.3612,-1.2755 0.3786,0.8343 -0.1012,0.5443 0.7814,1.1942 0.039,0.0288 0.1038,0.0586 0.1412,0.0847 0.8754,0.6118 0.2065,0.129 1.2164,0.3932 0.848,0.0006 1.713,-0.4669 2.5965,-0.6574 1.0333,-0.2228 1.9777,-0.2802 3.0218,-0.3774l0.1123 -3.2878 -1.8023 0.0239c-0.9595,0.0118 -0.3768,-0.0758 -0.8834,0.2564l2.3859 0.1965 -0.1468 1.9183c-2.9091,-0.0457 -3.4502,0.4174 -3.9538,-0.6003l-2.4794 0.2507 -0.4061 -0.6531z"/>
  <path class="fil19" d="M3.5436 17.8297c0.37,0.6038 -0.2588,1.3655 0.487,2.35 0.7017,0.208 0.625,0.2699 1.2184,-0.1653 0.4863,0.8025 -0.136,0.8308 0.9527,1.1041l0.2685 -2.35 0.0327 0.4986 1.0962 -3.0137 -0.9506 0.0486c-2.4981,-0.0733 -0.8427,0.2375 -2.1768,0.4137l0.0198 -1.4639c-0.566,0.5589 -0.8005,1.7055 -0.9479,2.5779z"/>
  <path class="fil20" d="M4.967 30.0943c0.8725,0.1955 1.1896,0.3581 1.7091,0.9957l1.4805 -0.1771c0.0352,-0.0567 0.0822,-0.2106 0.0979,-0.1746 0.0798,0.1828 0.1703,-0.3843 0.376,-0.7904l-0.8748 -1.8926 -0.9336 0.0555c-0.4215,-0.5795 -0.4251,-1.0782 -1.2836,-1.0923l-0.4111 0.9385 -0.9536 -1.1243 -0.5679 -0.1547c0.2762,1.0219 0.69,2.8254 1.3611,3.4163z"/>
  <path class="fil21" d="M11.8084 6.6058c-0.9684,0.2844 -2.7761,1.6135 -3.1092,2.4253l-0.0366 0.8606c2.3846,-1.3137 0.1488,0.3386 3.8863,-0.7098 1.0132,-0.2842 0.4969,-0.437 1.0982,0.2927l1.7355 -1.1997c-1.0099,-0.2642 -0.341,0.2186 -1.2164,-0.3932 -0.0374,-0.0261 -0.1022,-0.0559 -0.1412,-0.0847 -0.8826,-0.6499 -0.4028,-0.3599 -0.7814,-1.1942 -1.6628,1.0731 -0.197,0.5537 -1.3612,1.2755l-0.074 -1.2725z"/>
  <path class="fil22" d="M14.3436 4.9935l-0.5163 0.3512 0.4061 0.6531 2.4794 -0.2507c0.5036,1.0177 1.0447,0.5546 3.9538,0.6003l0.1468 -1.9183 -2.3859 -0.1965c-1.4604,-0.3269 -2.7956,0.8196 -4.0839,0.7609z"/>
  <path class="fil23" d="M8.5184 35.0042c0.4166,0.7348 0.8443,0.9025 1.6066,1.3258l0.4402 -0.4472c0.581,1.0548 2.1575,1.2172 3.6358,1.6056l-1.0116 -1.3834 1.0642 -0.1821 0.0238 -0.6157 -2.6097 -1.7524c-0.3142,0.6053 0.1218,0.1187 0.4188,0.9546l-1.9825 -0.2211 -0.6258 0.7013 -0.9598 0.0146z"/>
  <path class="fil24" d="M3.4911 25.8226l0.191 -0.7264c0.1252,0.7958 -0.0707,0.7264 0.5276,0.9853l0.413 -1.2076c0.1272,0.542 0.4964,0.8122 0.9636,1.0029l0.3561 0.0978c0.4222,-1.0543 0.376,-1.3711 0.2449,-2.5168l-0.3602 0.7942 -0.6318 -1.8398 -0.7927 0.699c-1.0444,-0.8283 -0.5143,-0.7481 -1.038,-0.603l-0.3512 -1.1644c-0.0328,1.4204 -0.0967,3.2206 0.4777,4.4788z"/>
  <path class="fil25" d="M3.0134 21.3438l0.3512 1.1644c0.5237,-0.1451 -0.0064,-0.2253 1.038,0.603l0.7927 -0.699 0.6318 1.8398 0.3602 -0.7942 0.0144 -2.3393c-1.0887,-0.2733 -0.4664,-0.3016 -0.9527,-1.1041 -0.5934,0.4352 -0.5167,0.3733 -1.2184,0.1653 -0.7458,-0.9845 -0.117,-1.7462 -0.487,-2.35l-0.5302 3.5141z"/>
  <path class="fil26" d="M6.2017 21.1185l-0.0144 2.3393c0.1311,1.1457 0.1773,1.4625 -0.2449,2.5168l-0.3561 -0.0978c-0.4672,-0.1907 -0.8364,-0.4609 -0.9636,-1.0029l-0.413 1.2076c-0.5983,-0.2589 -0.4024,-0.1895 -0.5276,-0.9853l-0.191 0.7264 0.1148 0.8554 0.5679 0.1547 0.9536 1.1243 0.4111 -0.9385c0.8585,0.0141 0.8621,0.5128 1.2836,1.0923l0.9336 -0.0555c-1.7592,-2.7063 -1.0039,-6.0229 -1.2528,-8.7882l-0.0327 -0.4986 -0.2685 2.35z"/>
  <path class="fil27" d="M7.6778 14.369c-1.1447,-0.6851 -0.0155,0.9753 -0.5878,-0.293 -0.0655,-0.1451 -0.2003,-0.1151 -0.2648,-0.2065 -0.4299,1.3255 -0.433,2.03 -1.6539,1.5387l-0.0412 -1.5955c-0.5127,0.5226 -0.5859,0.6434 -0.6386,1.4391l-0.0198 1.4639c1.3341,-0.1762 -0.3213,-0.487 2.1768,-0.4137l0.9506 -0.0486c0.3032,-0.8028 0.7688,-1.6084 1.2611,-2.3361 0.5226,-0.7725 1.3824,-1.625 1.7191,-2.2598 -1.1612,0.1158 -0.8169,0.4875 -1.6997,1.4132 -0.6634,0.6957 -0.5661,1.1443 -1.2018,1.2983z"/>
  <path class="fil28" d="M16.5089 39.5957l1.5431 0.4391c0.5023,-0.4308 -0.3075,-0.2408 0.8632,-0.3944 0.0432,-0.0057 0.6082,0.0534 0.6843,0.0616 0.4005,0.043 0.7834,0.1025 1.2044,0.1358l0.1377 -1.6559c-2.5207,0.0444 -2.0287,-0.1937 -2.8988,0.64 -0.9212,-0.3142 -0.9056,-0.4155 -1.7691,-0.1023l0.2352 0.8761z"/>
  <path class="fil29" d="M5.4721 12.8969l-0.342 0.9158 0.0412 1.5955c1.2209,0.4913 1.224,-0.2132 1.6539,-1.5387 0.0645,0.0914 0.1993,0.0614 0.2648,0.2065 0.5723,1.2683 -0.5569,-0.3921 0.5878,0.293 -0.0753,-0.7767 0.0018,-0.9953 -0.4045,-1.6161 -1.1724,0.4617 -0.3942,0.1691 -1.1096,0.9406l-0.6916 -0.7966z"/>
  <path class="fil30" d="M13.4869 13.9533l0.8405 1.6171 1.0808 -1.9982 -1.76 -0.3631 -0.139 0.5956c-0.0399,0.2425 0.3795,0.0925 -0.0223,0.1486z"/>
  <path class="fil31" d="M35.3661 16.6066c0.662,-0.1607 0.8434,-0.0742 1.1665,-0.6242l-0.2251 -0.2081c-0.7808,-0.0106 -0.4395,0.1433 -0.9513,-0.338 0.3785,-0.8258 0.4476,-0.6545 1.4049,-0.7055 -0.5361,-0.3751 0.6672,-0.5122 -0.6193,-0.3228l0.6 0.1196 -0.37 -0.4167c-0.8535,0.2948 -0.9437,0.1803 -1.4394,0.8547 0.1194,1.5273 0.4785,0.2636 0.4337,1.641z"/>
  <path class="fil32" d="M23.3745 17.5315l0.0426 1.3987c0.8427,-0.3537 0.1674,0.0191 1.0771,-0.2078 -0.8124,-1.0095 -0.4173,-0.5854 -0.859,-1.3039l-1.1362 -0.0996 0.8755 0.2126z"/>
  <polygon class="fil33" points="37.7949,15.1931 37.8606,15.3339 38.6747,15.1545 38.2889,13.6472 37.2735,13.8834 38.2934,14.3052 "/>
  <path class="fil34" d="M22.2603 5.5033c0.2967,0.1814 0.2771,0.2631 0.8563,0.286 1.2869,0.0509 0.6378,-0.0738 0.8898,-0.286 -0.6328,-0.3046 -1.2425,-0.379 -1.7461,0z"/>
  <path class="fil35" d="M36.3167 28.8642c0,-0.4204 -0.109,-0.3194 0.2979,-0.3306l-1.5438 -0.4299 0.1292 0.7426c0.154,-0.1081 -0.0329,-0.6414 1.1167,0.0179z"/>
  <path class="fil36" d="M41.0622 22.5862l0.4148 0c-0.0398,-0.9912 0.1486,-0.6843 -0.3404,-1.1803l-0.0744 1.1803z"/>
  <path class="fil37" d="M30.962 39.4769c0.8402,-0.2992 0.6548,-0.0963 1.0225,-0.8089 -0.7929,0.2738 -0.6981,0.099 -1.0225,0.8089z"/>
  <path class="fil38" d="M31.8922 5.3023c-0.3034,-0.5958 -0.2971,-0.5895 -0.9916,-0.6049 0.2691,0.581 0.3862,0.521 0.9916,0.6049z"/>
  <path class="fil39" d="M11.2695 5.2698c0.6369,-0.067 0.7035,-0.028 1.0169,-0.6018 -0.6345,0.0528 -0.6925,-0.0199 -1.0169,0.6018z"/>
  <path class="fil40" d="M2.0887 22.4943c-0.0375,-0.8734 0.1296,-0.5878 -0.2984,-1.0843 -0.0414,0.3013 -0.1032,0.2381 -0.0303,0.5838 0.1028,0.4878 0.0236,0.156 0.3287,0.5005z"/>
  <path class="fil41" d="M27.9101 5.7661c-0.0811,-0.0258 -0.2259,-0.128 -0.2418,-0.082 -0.0111,0.032 -0.1026,-0.1016 -0.1129,-0.137 -0.0113,-0.0382 -0.0011,-0.1299 0.0159,-0.1918l-0.225 0.5579c1.1586,0.2388 0.0933,0.0645 0.5638,-0.1471z"/>
  <g id="_563760424">
   <path id="_563761120" class="fil0" d="M33.0005 38.2775c-0.5222,0.0888 -0.3601,0.1598 -0.2695,-0.4135 -0.2282,0.3779 -0.5022,-0.5512 -0.1042,0.6131 0.7598,0.0624 0.0739,0.0503 0.3737,-0.1996z"/>
   <path id="_563760760" class="fil0" d="M36.6359 11.7022c0.3115,0.2248 -0.4523,0.4211 0.5005,0.1198 0.1732,-0.8945 0.0564,-0.0726 -0.1388,-0.4355 0.0765,0.5449 0.1852,0.4269 -0.3617,0.3157z"/>
  </g>
  <g id="_563760544">
   <path id="_563760976" class="fil1" d="M34.1234 9.907l-0.5286 0.1198c-0.3083,0.2857 -0.4669,0.4893 -0.7392,0.8162 -0.6481,0.778 -0.4455,0.2571 -0.4283,1.1305l1.6961 -2.0665z"/>
   <polygon id="_563760592" class="fil1" points="24.0114,38.632 23.7975,38.0769 22.3223,38.1935 22.3746,38.6303 "/>
  </g>
  <g id="_563760064">
   <path id="_563761024" class="fil2" d="M29.3186 6.9949l0.2093 0.1813c0.5839,-0.8883 0.3242,-1.2384 1.3548,-0.8607 0.2802,0.7243 0.1898,0.3671 -0.0615,1.1428l0.2572 0.2523 0.3865 -1.3234c-0.7178,-0.6821 -0.4493,-0.7116 -1.5497,-0.6295l-0.5966 1.2372z"/>
   <path id="_563760568" class="fil2" d="M36.6854 30.4852l-0.0021 0.1064c0.4838,0.5296 0.6634,0.5145 1.4349,0.2702 0.3501,-0.889 0.3483,-0.4411 0.184,-1.4093l-0.858 -0.314 -0.0889 0.1784c0.5132,0.4247 0.808,0.2459 0.5198,1.0615 -0.665,0.3337 -0.3692,0.1288 -1.1897,0.1068z"/>
   <path id="_563760928" class="fil2" d="M35.6231 11.1791c-0.1111,0.3364 -0.1516,0.2285 0.2271,0.2459l0.4849 -0.2114 0.3008 0.4886c0.5469,0.1112 0.4382,0.2292 0.3617,-0.3157l-0.409 -0.7801 -0.9655 0.5727z"/>
  </g>
  <g id="_563759680">
   <path id="_563759632" class="fil3" d="M37.6439 17.4264l-0.3438 0.1322 0.2707 0.1666 1.9305 0.1055 -0.6925 1.3649 1.0699 -0.4843c0.3664,-2.083 -0.9123,-1.4858 -2.2348,-1.2849z"/>
   <path id="_563759920" class="fil3" d="M25.7784 6.2838l0.2029 0.1706c0.3321,-0.8894 0.1786,-1.548 1.1234,-1.7593l0.4666 0.6602c-0.017,0.0619 -0.0272,0.1536 -0.0159,0.1918 0.0103,0.0354 0.1018,0.169 0.1129,0.137 0.0159,-0.046 0.1607,0.0562 0.2418,0.082l-0.1249 -1.1849c-0.762,-0.4295 -0.5306,-0.3405 -1.3693,-0.2271 -0.5066,0.578 -0.6597,1.1855 -0.6375,1.9297z"/>
   <polygon id="_563759944" class="fil3" points="38.1965,25.7562 39.2908,26.794 38.2622,27.3868 39.3099,27.3984 39.7846,25.9346 38.0438,25.3445 "/>
   <path id="_563759608" class="fil3" d="M32.3536 34.4229l-0.199 0.1821 0.893 1.2945c-0.5497,0.6618 -0.2813,0.0583 -0.5231,0.859 0.6211,-0.2158 0.764,-0.3372 1.1098,-0.905l-1.2807 -1.4306z"/>
  </g>
  <g id="_563758000">
   <path id="_563760208" class="fil4" d="M31.0784 7.7106l-0.2572 -0.2523 -1.0467 1.6303 -0.7241 -0.2605c-0.2079,-0.6577 0.2131,-0.929 0.4775,-1.6519l-0.2093 -0.1813c-0.5327,0.4537 -0.8289,1.0919 -0.8403,1.7889 0.5457,0.6712 0.6069,0.6517 1.525,0.7236l1.0751 -1.7968z"/>
   <path id="_563759368" class="fil4" d="M35.3552 12.9216c-0.9404,0.2698 -0.8081,0.5993 -1.3161,0.1817l0.8731 -0.877 0.938 -0.8013c-0.3787,-0.0174 -0.3382,0.0905 -0.2271,-0.2459 -0.7524,0.4015 -1.6528,1.0606 -2.0918,1.8076l0.5465 0.8426c0.8682,-0.1383 0.8789,-0.259 1.2774,-0.9077z"/>
   <path id="_563758960" class="fil4" d="M36.9292 26.8516c-0.5166,-0.9268 -0.6425,-0.0208 -0.5184,-1.259 0.95,-0.2159 0.4777,-0.2349 1.1087,0.2051l0.677 -0.0415 -0.1527 -0.4117c-0.8174,-0.3816 -0.8788,-0.3969 -1.7289,-0.2602 -0.6616,0.8816 -0.7306,1.7811 0.6143,1.7673z"/>
   <path id="_563758888" class="fil4" d="M32.1546 34.605l0.199 -0.1821c-0.2984,-0.7823 -0.503,-1.022 -1.3319,-1.1807l-0.5282 0.5514c0.0047,0.7134 0.1393,0.9339 0.8275,1.1169l-0.2201 -1.2506 1.0537 0.9451z"/>
   <polygon id="_563759296" class="fil4" points="36.0366,19.0773 37.0498,19.6707 37.5517,19.0746 36.5968,19.0764 36.5337,18.2267 37.307,18.0046 37.5708,17.7252 37.3001,17.5586 36.7633,17.5945 36.1773,17.9383 "/>
   <path id="_563758912" class="fil4" d="M25.9813 6.4544l-0.2029 -0.1706 1.5327 1.0326c-0.6734,0.0791 0.0519,0.267 -1.4405,0.195l0.1107 -1.057z"/>
   <path id="_563758984" class="fil4" d="M27.9487 35.0904l0.0695 1.0003c0.5895,-0.1555 0.1327,0.1384 0.4189,-0.3713 0.0702,-0.1251 0.1486,-0.4292 0.4103,-0.8026l-0.0111 -0.1321 -0.8876 0.3057z"/>
   <path id="_563759416" class="fil4" d="M32.1461 9.8275l-0.1129 -0.1169c-0.7145,0.4008 -0.6762,0.3011 -0.8224,1.0701 0.7523,-0.2485 0.6012,-0.1833 0.9353,-0.9532z"/>
  </g>
  <g id="_563758720">
   <path id="_563758336" class="fil5" d="M13.554 4.4197c1.7374,-1.677 8.9611,-2.211 11.3222,-1.5428l5.3072 1.5717c-0.8738,-1.63 -6.5724,-2.254 -8.3901,-2.2794l-8.2393 2.2505z"/>
   <path id="_563758600" class="fil5" d="M12.2288 39.4722c-0.3774,-0.7145 -0.1766,-0.5766 -1.0256,-0.7629 0.3626,0.6368 0.2635,0.4642 1.0256,0.7629z"/>
  </g>
  <g id="_563758072">
   <path id="_563758168" class="fil6" d="M26.1794 36.5219l0.2641 2.7354 -0.8987 -0.469 0.2187 0.8112c0.7964,0.207 0.1799,0.2847 0.9759,-0.0305l0.6079 -0.3814 -0.9062 -3.2577c-0.3591,0.139 -0.282,-0.3376 -0.2617,0.592z"/>
   <path id="_563758144" class="fil6" d="M32.0332 9.7106l0.1129 0.1169c0.8516,-0.6089 1.1032,-1.5363 2.1755,-1.0287 -0.1499,1.117 -0.159,0.2706 -0.7268,1.228l0.5286 -0.1198c0.5888,-0.0918 0.5168,-0.3238 0.666,-0.8514 -0.5806,-1.2748 -0.6026,-0.4201 -1.248,-1.2544 -0.5325,0.7694 -1.1786,0.8835 -1.5082,1.9094z"/>
   <path id="_563758672" class="fil6" d="M38.0102 21.9346l-1.2279 -0.0971c0.3292,-0.7402 0.0795,-0.5284 1.0349,-0.5693l1.8424 -0.0507 0.7226 0.9296 -0.1069 -1.3022 -3.7641 0.3362 0.2511 1.012c1.3157,0.314 0.6434,0.248 1.2479,-0.2585z"/>
  </g>
  <g id="_391042744">
   <path id="_389781224" class="fil7" d="M29.9929 36.631c0.4111,0.789 0.5065,0.6289 0.139,1.2393 -0.7405,0.2703 -0.8478,-0.1194 -1.0148,-0.8692l0.8758 -0.3701zm-1.1455 -1.7142l0.9591 1.1352c-0.8657,0.853 -1.2029,0.2185 -1.2157,1.3695l0.9067 1.0542c0.8845,-0.0599 0.6996,-0.0341 1.3084,-0.6279 0.0076,-0.9926 -0.7664,-2.2266 -1.3161,-3.0772l-0.6535 0.0141 0.0111 0.1321z"/>
   <path id="_391042792" class="fil7" d="M32.2982 32.0172l2.9231 2.3956c0.5584,-0.2936 0.5351,-0.2141 0.8756,-0.7842 0.1906,-0.3191 0.2471,-0.4556 0.224,-0.851l-2.8127 -2.0774c0.5937,1.5474 2.4045,1.5913 2.0119,3.0078 -1.1349,0.4217 -1.9279,-1.7698 -3.2219,-1.6908z"/>
   <path id="_390041456" class="fil7" d="M36.1419 30.6665l0.5414 -0.0749 0.0021 -0.1064c-0.1015,-0.8285 -0.0566,-0.9034 0.6699,-1.1683l0.0889 -0.1784 -0.8296 -0.6049c-0.4069,0.0112 -0.2979,-0.0898 -0.2979,0.3306l0.242 0.4334c-0.434,0.8179 -0.4124,0.4367 -0.4168,1.3689z"/>
   <path id="_391043080" class="fil7" d="M36.7611 14.7308l0.0739 0.847 -0.5275 0.1965 0.2251 0.2081c0.7081,-0.0895 0.8723,-0.1596 1.328,-0.6485l-0.0657 -0.1408 -0.5554 -0.0175c-0.3066,-0.7987 -0.0883,-0.5194 -0.4977,-0.648l-0.6 -0.1196c1.2865,-0.1894 0.0832,-0.0523 0.6193,0.3228z"/>
  </g>
  <g id="_391041472">
   <path id="_391041256" class="fil8" d="M9.4838 17.8297l0.6792 -0.2925c0.5686,1.6718 1.0324,2.5118 1.2828,4.2549l-1.76 -0.0014 -0.6133 -1.8352c-0.4379,0.6806 -0.3524,1.1853 -0.336,2.0958l3.4989 0.0776c-0.191,-1.7823 0.321,-2.4707 0.7409,-4.0769 -0.3826,0.7066 -0.3184,0.3599 -0.8597,0.6582l-0.394 -1.3307c-0.4553,1.3837 0.104,0.2861 0.3713,1.547 0.2534,1.1959 -0.2316,1.0559 -1.0862,1.2899 -0.3312,-3.7047 -0.0912,-1.6548 -0.7945,-3.046l0.6993 -1.9189c-0.7212,0.5132 -1.1566,1.6562 -1.4287,2.5782z"/>
   <path id="_391041592" class="fil8" d="M22.5215 31.0035c-0.6938,0.471 -0.5422,0.1706 -1.1559,0.4755l-0.0453 2.9834 1.9814 -0.2184c0.8803,0.078 1.5019,-0.0254 2.1293,-0.606 -0.9006,-0.1789 -2.1059,0.1349 -2.9964,0.3952l-0.1368 -0.3517c-0.0208,-0.0556 -0.0401,-0.1165 -0.0637,-0.1791 -0.0244,-0.0647 -0.038,-0.119 -0.0637,-0.1859 -0.0289,-0.0753 -0.3039,-0.713 -0.3761,-0.8719 3.134,0.1152 2.1022,0.5145 3.0039,-0.085 -1.4818,-0.3935 -0.5474,-0.1046 -1.6931,-0.0176 -0.7785,0.0592 -0.8261,-0.0113 -1.3426,-0.4227 2.0541,-0.5592 1.6457,-0.2489 2.2309,-1.1632l-1.4719 0.2474z"/>
   <path id="_391041544" class="fil8" d="M29.1358 26.8176c-1.4174,1.0319 -1.3758,2.1982 -3.5993,3.0937l-0.0244 0.3254 0.6904 -0.2842 0.194 0.3218c0.0377,0.0548 0.1661,0.2676 0.2087,0.3179 0.385,0.4545 -0.1612,0.0953 0.4857,0.3418l0.0485 -1.2786c1.1147,-0.0962 0.8069,-0.2278 1.1433,-0.6293 0.4643,-0.554 1.111,-0.4554 1.8246,-1.5216 0.6489,-0.9695 0.0513,-1.1699 0.0509,-1.1704l-0.8026 1.444 -0.2198 -0.9605z"/>
  </g>
  <g id="_391044784">
   <path id="_391041280" class="fil9" d="M32.731 37.864c-0.0906,0.5733 -0.2527,0.5023 0.2695,0.4135 2.4491,-1.5163 4.1111,-3.5381 5.6333,-6.03 0.7913,-1.2954 1.4106,-2.6261 1.8752,-4.0717 0.4458,-1.3869 1.1289,-3.3564 0.6559,-4.8014 -0.2518,0.519 -0.6727,3.5563 -1.0247,4.6631 -0.4232,1.3302 -1.0272,2.7561 -1.7763,3.9459 -1.059,1.6821 -3.9044,5.3744 -5.6329,5.8806z"/>
   <path id="_391041376" class="fil9" d="M40.0707 16.0686l0.7995 2.8755 -0.1761 0.3085 0.409 1.272c0.3061,-0.7663 0.2931,-0.5203 0.1997,-1.1993 -0.1652,-1.2005 -0.514,-2.6692 -0.9117,-3.7956 -0.4248,-1.2029 -1.2114,-2.9774 -1.9176,-4.0297 -1.4074,-2.0975 -3.6083,-4.7548 -5.7976,-5.8969 2.731,3.0451 6.1888,5.4054 7.3948,10.4655z"/>
   <path id="_391041208" class="fil9" d="M24.796 41.2899l-1.1494 0.0039c-0.6768,0.6521 -4.6933,0.1177 -5.8269,-0.1027 -1.8884,-0.3672 -3.1962,-1.0874 -4.9145,-1.5972 1.8697,1.1467 1.6935,1.2 3.8589,1.7446 3.9963,1.005 10.6073,0.6867 13.4986,-1.4962 -0.4897,-0.1138 -0.3725,-0.1395 -0.7478,-0.0189 -1.7018,0.5464 -1.3001,0.8131 -4.7189,1.4665z"/>
   <path id="_391045120" class="fil9" d="M1.9812 20.5244c0.3297,-0.6318 0.7712,-3.5971 1.1891,-4.8179 0.86,-2.5131 2.652,-5.596 4.4886,-7.3867 0.684,-0.667 2.8464,-1.7827 2.8183,-2.7138l-5.8765 6.0523c-1.1131,1.7221 -3.4503,7.1297 -2.6195,8.8661z"/>
   <path id="_391044976" class="fil9" d="M9.397 37.9849l1.151 0.4188c-0.6357,-1.0997 -3.8913,-3.1309 -4.0689,-4.2625 -3.1342,-2.1978 -4.1996,-10.1743 -4.4979,-10.7456l2.2821 8.4424c0.8035,2.037 4.8491,5.7199 5.1337,6.1469z"/>
  </g>
  <g id="_391044352">
   <path id="_391044232" class="fil10" d="M22.499 17.3189l1.1362 0.0996c0.4417,0.7185 0.0466,0.2944 0.859,1.3039 -0.9097,0.2269 -0.2344,-0.1459 -1.0771,0.2078l-0.0426 -1.3987 -0.8755 -0.2126zm1.9655 3.754l0.9897 -1.8735c0.5397,-0.9158 0.5842,-0.3409 0.6725,-1.6857 -0.2603,-1.1933 -3.4446,-2.3065 -4.8859,-2.217l0.004 3.3003c1.7849,0.4785 2.4255,0.7187 3.2197,2.4759z"/>
   <path id="_391044808" class="fil10" d="M16.8534 27.0652c0.3658,0.7154 1.3214,1.2089 2.1233,1.241l3.6032 -0.1269 1.6148 -0.6129 -1.2813 -0.5454c0.7345,-0.5642 1.7004,-1.0899 1.9605,-1.7057 -1.5186,-0.3156 -1.1706,-0.4536 -2.0521,0.3273 -1.1111,0.9843 -0.5103,0.6349 -0.4674,0.8586 0.129,0.672 0.2639,-0.1061 -0.0422,0.3762l-0.7128 -0.918 -1.1259 0.0174c0.4401,1.258 0.4569,0.3945 0.4588,1.3206 -2.1701,-0.7523 -1.9173,-1.1295 -3.0453,-0.6601l-1.596 -1.1008 0.5624 1.5287z"/>
   <path id="_391044568" class="fil10" d="M16.8914 23.5402l0.1982 -0.2944c0.3416,-0.8197 0.0494,0.1246 0.0819,-1.0113 -1.8349,0.385 -1.0304,0.1344 -2.6793,0.2565 0.4037,1.2824 0.6389,0.1831 1.1811,-0.2565 0.5902,1.3439 -0.014,1.208 -0.2635,1.4824 -0.4014,0.4413 -0.0975,-0.2163 -0.287,0.5228l0.335 0.4823c1.0881,-0.3467 0.7266,-0.0656 1.4336,-1.1818z"/>
  </g>
  <g id="_391043464">
   <path id="_391044520" class="fil11" d="M27.2786 15.3132c1.5373,1.3825 2.4022,2.8757 2.8636,4.9649 0.2486,1.1255 0.2313,2.3653 0.0023,3.4902 -0.2126,1.0445 -0.8947,2.0893 -1.0087,3.0493l0.2198 0.9605 0.8026 -1.444c0.0004,0.0005 0.598,0.2009 -0.0509,1.1704 -0.7136,1.0662 -1.3603,0.9676 -1.8246,1.5216 -0.3364,0.4015 -0.0286,0.5331 -1.1433,0.6293l-0.0485 1.2786c-0.6469,-0.2465 -0.1007,0.1127 -0.4857,-0.3418 -0.0426,-0.0503 -0.171,-0.2631 -0.2087,-0.3179l-0.194 -0.3218 -0.6904 0.2842 -1.5187 0.5194c-0.5852,0.9143 -0.1768,0.604 -2.2309,1.1632 0.5165,0.4114 0.5641,0.4819 1.3426,0.4227 1.1457,-0.087 0.2113,-0.3759 1.6931,0.0176 -0.9017,0.5995 0.1301,0.2002 -3.0039,0.085 0.0722,0.1589 0.3472,0.7966 0.3761,0.8719 0.0257,0.0669 0.0393,0.1212 0.0637,0.1859 0.0236,0.0626 0.0429,0.1235 0.0637,0.1791l0.1368 0.3517c0.8905,-0.2603 2.0958,-0.5741 2.9964,-0.3952l0.4615 0.0273c1.2269,-0.5456 1.8884,-0.89 2.9781,-1.7119 0.7934,-0.5985 1.6211,-1.7005 2.341,-2.1432l1.9006 -3.3431c-0.0146,-0.941 0.5011,-2.3416 0.5775,-3.5635 0.0857,-1.3702 -0.2785,-2.933 -0.1599,-3.9671 -0.4864,-0.5891 -0.7404,-1.6855 -1.1213,-2.4748 -0.3342,-0.6924 -0.9108,-1.53 -1.3699,-2.1598 -0.7108,-0.975 -2.4239,-2.8347 -3.7241,-2.9929 -0.092,-0.0012 -0.6256,-0.0408 -0.6976,-0.0356 -0.7204,0.0517 -0.0325,-0.1218 -0.5998,0.1735l2.7847 1.9801 -3.1214 -1.3375 -0.4781 0.8436 0.5527 0.3632c1.3397,0.0513 0.8593,0.2856 1.7627,0.6096l0.1491 1.5115 -0.3882 -0.1042z"/>
   <path id="_391044208" class="fil11" d="M13.4869 13.9533c0.4018,-0.0561 -0.0176,0.0939 0.0223,-0.1486l0.139 -0.5956 1.76 0.3631 -1.0808 1.9982 -0.8405 -1.6171zm-0.2864 -1.3022c-0.7568,0.2127 -2.1291,1.7411 -2.288,2.6004l-0.6993 1.9189c0.7033,1.3912 0.4633,-0.6587 0.7945,3.046 0.8546,-0.234 1.3396,-0.094 1.0862,-1.2899 -0.2673,-1.2609 -0.8266,-0.1633 -0.3713,-1.547l0.394 1.3307c0.5413,-0.2983 0.4771,0.0484 0.8597,-0.6582 0.4797,-0.5477 0.8701,-1.4188 1.4588,-2.0736 0.6378,-0.7092 1.3185,-1.1519 2.1378,-1.7375 -0.4763,-0.5752 -0.5719,0.4788 -0.3386,-0.6857l3.2514 -1.5678c0.4763,-0.2031 0.0031,0.1252 0.5453,-0.3204 -2.2376,-0.0277 -1.6675,0.165 -3.3752,-0.4957l1.1739 1.3763c-1.2843,0.1881 -0.7577,0.296 -1.4647,-0.4808 -2.1018,0.8894 -2.0538,1.1845 -2.4019,0.6812l-0.7626 -0.0969z"/>
   <path id="_391043512" class="fil11" d="M9.0725 19.9555l0.6133 1.8352 1.76 0.0014c-0.2504,-1.7431 -0.7142,-2.5831 -1.2828,-4.2549l-0.6792 0.2925c-0.3513,0.6101 -0.5205,1.4883 -0.4113,2.1258z"/>
  </g>
  <path class="fil12" d="M42.3191 22.4326c-0.2141,12.1769 -11.0636,21.5224 -22.7363,20.2624 -2.8399,-0.3065 -9.1703,-2.1786 -10.2785,-4.0712 -2.4399,-1.2642 -5.1167,-5.0112 -6.3281,-7.472 -1.79,-3.6363 -2.4215,-7.2616 -1.9982,-11.3082 0.7489,-7.1592 4.7208,-12.5634 10.7443,-16.0418 12.4413,-7.1845 30.6648,1.5286 30.5968,18.6308zm-42.3192 -2.9552l0 5.1007c0.6705,1.5426 0.6487,4.3937 2.6227,7.7981 1.2664,2.1844 2.7586,4.2533 4.7118,5.8583 15.691,12.8931 35.8601,0.9874 35.8377,-16.2211 -0.0146,-11.2244 -9.0022,-21.0177 -20.2932,-21.5118 -5.1675,-0.2261 -11.8306,1.5305 -15.5025,5.3288 -1.9216,1.9877 -3.2821,3.1917 -4.6407,5.7163 -2.4924,4.6317 -1.874,5.9279 -2.7358,7.9307z"/>
  <path class="fil13" d="M14.4922 22.491c1.6489,-0.1221 0.8444,0.1285 2.6793,-0.2565 -0.0325,1.1359 0.2597,0.1916 -0.0819,1.0113l-0.1982 0.2944c-0.707,1.1162 -0.3455,0.8351 -1.4336,1.1818l-0.335 -0.4823c0.1895,-0.7391 -0.1144,-0.0815 0.287,-0.5228 0.2495,-0.2744 0.8537,-0.1385 0.2635,-1.4824 -0.5422,0.4396 -0.7774,1.5389 -1.1811,0.2565zm9.9723 -1.4181c0.9409,4.3767 -5.2034,6.7266 -6.698,1.0157 -1.0057,-0.0992 -2.5105,-0.2375 -3.3602,0.1468l0.1166 1.3177c0.6104,1.3565 0.8948,2.8249 2.3305,3.5121l-0.5624 -1.5287 1.596 1.1008c1.128,-0.4694 0.8752,-0.0922 3.0453,0.6601 -0.0019,-0.9261 -0.0187,-0.0626 -0.4588,-1.3206l1.1259 -0.0174 0.7128 0.918c0.3061,-0.4823 0.1712,0.2958 0.0422,-0.3762 -0.0429,-0.2237 -0.6437,0.1257 0.4674,-0.8586 0.8815,-0.7809 0.5335,-0.6429 2.0521,-0.3273 -0.2601,0.6158 -1.226,1.1415 -1.9605,1.7057l1.2813 0.5454 -1.6148 0.6129 -3.6032 0.1269c0.9651,0.9061 3.1485,0.5835 4.4241,0.2004 2.0297,-0.8173 3.6129,-2.1954 4.2924,-4.3547 0.6454,-2.0513 0.3352,-5.4166 -1.5665,-6.6382 -0.0883,1.3448 -0.1328,0.7699 -0.6725,1.6857l-0.9897 1.8735z"/>
  <path class="fil14" d="M13.2005 12.6511l0.7626 0.0969c0.3481,0.5033 0.3001,0.2082 2.4019,-0.6812 0.707,0.7768 0.1804,0.6689 1.4647,0.4808l-1.1739 -1.3763c1.7077,0.6607 1.1376,0.468 3.3752,0.4957 -0.5422,0.4456 -0.069,0.1173 -0.5453,0.3204l-3.2514 1.5678c-0.2333,1.1645 -0.1377,0.1105 0.3386,0.6857 2.0317,-1.1043 6.7314,-2.0554 8.3704,-0.3579 0.9857,0.24 1.5521,0.7972 2.3353,1.4302l0.3882 0.1042 -0.1491 -1.5115c-0.9034,-0.324 -0.423,-0.5583 -1.7627,-0.6096l-0.5527 -0.3632 0.4781 -0.8436 3.1214 1.3375 -2.7847 -1.9801c0.5673,-0.2953 -0.1206,-0.1218 0.5998,-0.1735 0.072,-0.0052 0.6056,0.0344 0.6976,0.0356 -0.9758,-1.1733 -3.3252,-1.518 -4.8598,-1.7076 -2.5824,-0.3507 -7.8428,0.7871 -9.2542,3.0497z"/>
  <path class="fil15" d="M10.125 36.33c0.2646,1.1774 5.0314,2.9843 6.3839,3.2657l-0.2352 -0.8761c0.8635,-0.3132 0.8479,-0.2119 1.7691,0.1023 0.8701,-0.8337 0.3781,-0.5956 2.8988,-0.64l-0.1377 1.6559c-0.421,-0.0333 -0.8039,-0.0928 -1.2044,-0.1358 -0.0761,-0.0082 -0.6411,-0.0673 -0.6843,-0.0616 -1.1707,0.1536 -0.3609,-0.0364 -0.8632,0.3944l3.1895 0.2622 -0.0665 -3.5337c-2.6906,0.4899 -4.9339,-1.2405 -6.8976,-1.4561l-0.0238 0.6157 -1.0642 0.1821 1.0116 1.3834c-1.4783,-0.3884 -3.0548,-0.5508 -3.6358,-1.6056l-0.4402 0.4472z"/>
  <path class="fil16" d="M5.4721 12.8969l0.6916 0.7966c0.7154,-0.7715 -0.0628,-0.4789 1.1096,-0.9406 0.4063,0.6208 0.3292,0.8394 0.4045,1.6161 0.6357,-0.154 0.5384,-0.6026 1.2018,-1.2983 0.8828,-0.9257 0.5385,-1.2974 1.6997,-1.4132 1.1418,-0.6624 1.5204,-1.5817 3.0678,-2.1829 -0.6013,-0.7297 -0.085,-0.5769 -1.0982,-0.2927 -3.7375,1.0484 -1.5017,-0.6039 -3.8863,0.7098l0.0366 -0.8606c-1.2639,0.6928 -2.396,2.5363 -3.2271,3.8658z"/>
  <path class="fil17" d="M4.967 30.0943c0.4579,1.5648 1.9901,2.836 2.319,3.9114 0.6401,0.376 0.4843,0.694 1.2324,0.9985l0.9598 -0.0146 0.6258 -0.7013 1.9825 0.2211c-0.297,-0.8359 -0.733,-0.3493 -0.4188,-0.9546l-1.4554 -1.5853 -1.5818 -2.0216c-0.2057,0.4061 -0.2962,0.9732 -0.376,0.7904 -0.0157,-0.036 -0.0627,0.1179 -0.0979,0.1746l-1.4805 0.1771c-0.5195,-0.6376 -0.8366,-0.8002 -1.7091,-0.9957z"/>
  <path class="fil18" d="M13.8273 5.3447c-0.6695,0.3492 -1.6615,0.7082 -2.0189,1.2611l0.074 1.2725c1.1642,-0.7218 -0.3016,-0.2024 1.3612,-1.2755 0.3786,0.8343 -0.1012,0.5443 0.7814,1.1942 0.039,0.0288 0.1038,0.0586 0.1412,0.0847 0.8754,0.6118 0.2065,0.129 1.2164,0.3932 0.848,0.0006 1.713,-0.4669 2.5965,-0.6574 1.0333,-0.2228 1.9777,-0.2802 3.0218,-0.3774l0.1123 -3.2878 -1.8023 0.0239c-0.9595,0.0118 -0.3768,-0.0758 -0.8834,0.2564l2.3859 0.1965 -0.1468 1.9183c-2.9091,-0.0457 -3.4502,0.4174 -3.9538,-0.6003l-2.4794 0.2507 -0.4061 -0.6531z"/>
  <path class="fil19" d="M3.5436 17.8297c0.37,0.6038 -0.2588,1.3655 0.487,2.35 0.7017,0.208 0.625,0.2699 1.2184,-0.1653 0.4863,0.8025 -0.136,0.8308 0.9527,1.1041l0.2685 -2.35 0.0327 0.4986 1.0962 -3.0137 -0.9506 0.0486c-2.4981,-0.0733 -0.8427,0.2375 -2.1768,0.4137l0.0198 -1.4639c-0.566,0.5589 -0.8005,1.7055 -0.9479,2.5779z"/>
  <path class="fil20" d="M4.967 30.0943c0.8725,0.1955 1.1896,0.3581 1.7091,0.9957l1.4805 -0.1771c0.0352,-0.0567 0.0822,-0.2106 0.0979,-0.1746 0.0798,0.1828 0.1703,-0.3843 0.376,-0.7904l-0.8748 -1.8926 -0.9336 0.0555c-0.4215,-0.5795 -0.4251,-1.0782 -1.2836,-1.0923l-0.4111 0.9385 -0.9536 -1.1243 -0.5679 -0.1547c0.2762,1.0219 0.69,2.8254 1.3611,3.4163z"/>
  <path class="fil21" d="M11.8084 6.6058c-0.9684,0.2844 -2.7761,1.6135 -3.1092,2.4253l-0.0366 0.8606c2.3846,-1.3137 0.1488,0.3386 3.8863,-0.7098 1.0132,-0.2842 0.4969,-0.437 1.0982,0.2927l1.7355 -1.1997c-1.0099,-0.2642 -0.341,0.2186 -1.2164,-0.3932 -0.0374,-0.0261 -0.1022,-0.0559 -0.1412,-0.0847 -0.8826,-0.6499 -0.4028,-0.3599 -0.7814,-1.1942 -1.6628,1.0731 -0.197,0.5537 -1.3612,1.2755l-0.074 -1.2725z"/>
  <path class="fil22" d="M14.3436 4.9935l-0.5163 0.3512 0.4061 0.6531 2.4794 -0.2507c0.5036,1.0177 1.0447,0.5546 3.9538,0.6003l0.1468 -1.9183 -2.3859 -0.1965c-1.4604,-0.3269 -2.7956,0.8196 -4.0839,0.7609z"/>
  <path class="fil23" d="M8.5184 35.0042c0.4166,0.7348 0.8443,0.9025 1.6066,1.3258l0.4402 -0.4472c0.581,1.0548 2.1575,1.2172 3.6358,1.6056l-1.0116 -1.3834 1.0642 -0.1821 0.0238 -0.6157 -2.6097 -1.7524c-0.3142,0.6053 0.1218,0.1187 0.4188,0.9546l-1.9825 -0.2211 -0.6258 0.7013 -0.9598 0.0146z"/>
  <path class="fil24" d="M3.4911 25.8226l0.191 -0.7264c0.1252,0.7958 -0.0707,0.7264 0.5276,0.9853l0.413 -1.2076c0.1272,0.542 0.4964,0.8122 0.9636,1.0029l0.3561 0.0978c0.4222,-1.0543 0.376,-1.3711 0.2449,-2.5168l-0.3602 0.7942 -0.6318 -1.8398 -0.7927 0.699c-1.0444,-0.8283 -0.5143,-0.7481 -1.038,-0.603l-0.3512 -1.1644c-0.0328,1.4204 -0.0967,3.2206 0.4777,4.4788z"/>
  <path class="fil25" d="M3.0134 21.3438l0.3512 1.1644c0.5237,-0.1451 -0.0064,-0.2253 1.038,0.603l0.7927 -0.699 0.6318 1.8398 0.3602 -0.7942 0.0144 -2.3393c-1.0887,-0.2733 -0.4664,-0.3016 -0.9527,-1.1041 -0.5934,0.4352 -0.5167,0.3733 -1.2184,0.1653 -0.7458,-0.9845 -0.117,-1.7462 -0.487,-2.35l-0.5302 3.5141z"/>
  <path class="fil26" d="M6.2017 21.1185l-0.0144 2.3393c0.1311,1.1457 0.1773,1.4625 -0.2449,2.5168l-0.3561 -0.0978c-0.4672,-0.1907 -0.8364,-0.4609 -0.9636,-1.0029l-0.413 1.2076c-0.5983,-0.2589 -0.4024,-0.1895 -0.5276,-0.9853l-0.191 0.7264 0.1148 0.8554 0.5679 0.1547 0.9536 1.1243 0.4111 -0.9385c0.8585,0.0141 0.8621,0.5128 1.2836,1.0923l0.9336 -0.0555c-1.7592,-2.7063 -1.0039,-6.0229 -1.2528,-8.7882l-0.0327 -0.4986 -0.2685 2.35z"/>
  <path class="fil27" d="M7.6778 14.369c-1.1447,-0.6851 -0.0155,0.9753 -0.5878,-0.293 -0.0655,-0.1451 -0.2003,-0.1151 -0.2648,-0.2065 -0.4299,1.3255 -0.433,2.03 -1.6539,1.5387l-0.0412 -1.5955c-0.5127,0.5226 -0.5859,0.6434 -0.6386,1.4391l-0.0198 1.4639c1.3341,-0.1762 -0.3213,-0.487 2.1768,-0.4137l0.9506 -0.0486c0.3032,-0.8028 0.7688,-1.6084 1.2611,-2.3361 0.5226,-0.7725 1.3824,-1.625 1.7191,-2.2598 -1.1612,0.1158 -0.8169,0.4875 -1.6997,1.4132 -0.6634,0.6957 -0.5661,1.1443 -1.2018,1.2983z"/>
  <path class="fil28" d="M16.5089 39.5957l1.5431 0.4391c0.5023,-0.4308 -0.3075,-0.2408 0.8632,-0.3944 0.0432,-0.0057 0.6082,0.0534 0.6843,0.0616 0.4005,0.043 0.7834,0.1025 1.2044,0.1358l0.1377 -1.6559c-2.5207,0.0444 -2.0287,-0.1937 -2.8988,0.64 -0.9212,-0.3142 -0.9056,-0.4155 -1.7691,-0.1023l0.2352 0.8761z"/>
  <path class="fil29" d="M5.4721 12.8969l-0.342 0.9158 0.0412 1.5955c1.2209,0.4913 1.224,-0.2132 1.6539,-1.5387 0.0645,0.0914 0.1993,0.0614 0.2648,0.2065 0.5723,1.2683 -0.5569,-0.3921 0.5878,0.293 -0.0753,-0.7767 0.0018,-0.9953 -0.4045,-1.6161 -1.1724,0.4617 -0.3942,0.1691 -1.1096,0.9406l-0.6916 -0.7966z"/>
  <path class="fil30" d="M13.4869 13.9533l0.8405 1.6171 1.0808 -1.9982 -1.76 -0.3631 -0.139 0.5956c-0.0399,0.2425 0.3795,0.0925 -0.0223,0.1486z"/>
  <path class="fil31" d="M35.3661 16.6066c0.662,-0.1607 0.8434,-0.0742 1.1665,-0.6242l-0.2251 -0.2081c-0.7808,-0.0106 -0.4395,0.1433 -0.9513,-0.338 0.3785,-0.8258 0.4476,-0.6545 1.4049,-0.7055 -0.5361,-0.3751 0.6672,-0.5122 -0.6193,-0.3228l0.6 0.1196 -0.37 -0.4167c-0.8535,0.2948 -0.9437,0.1803 -1.4394,0.8547 0.1194,1.5273 0.4785,0.2636 0.4337,1.641z"/>
  <path class="fil32" d="M23.3745 17.5315l0.0426 1.3987c0.8427,-0.3537 0.1674,0.0191 1.0771,-0.2078 -0.8124,-1.0095 -0.4173,-0.5854 -0.859,-1.3039l-1.1362 -0.0996 0.8755 0.2126z"/>
  <polygon class="fil33" points="37.7949,15.1931 37.8606,15.3339 38.6747,15.1545 38.2889,13.6472 37.2735,13.8834 38.2934,14.3052 "/>
  <path class="fil34" d="M22.2603 5.5033c0.2967,0.1814 0.2771,0.2631 0.8563,0.286 1.2869,0.0509 0.6378,-0.0738 0.8898,-0.286 -0.6328,-0.3046 -1.2425,-0.379 -1.7461,0z"/>
  <path class="fil35" d="M36.3167 28.8642c0,-0.4204 -0.109,-0.3194 0.2979,-0.3306l-1.5438 -0.4299 0.1292 0.7426c0.154,-0.1081 -0.0329,-0.6414 1.1167,0.0179z"/>
  <path class="fil36" d="M41.0622 22.5862l0.4148 0c-0.0398,-0.9912 0.1486,-0.6843 -0.3404,-1.1803l-0.0744 1.1803z"/>
  <path class="fil37" d="M30.962 39.4769c0.8402,-0.2992 0.6548,-0.0963 1.0225,-0.8089 -0.7929,0.2738 -0.6981,0.099 -1.0225,0.8089z"/>
  <path class="fil38" d="M31.8922 5.3023c-0.3034,-0.5958 -0.2971,-0.5895 -0.9916,-0.6049 0.2691,0.581 0.3862,0.521 0.9916,0.6049z"/>
  <path class="fil39" d="M11.2695 5.2698c0.6369,-0.067 0.7035,-0.028 1.0169,-0.6018 -0.6345,0.0528 -0.6925,-0.0199 -1.0169,0.6018z"/>
  <path class="fil40" d="M2.0887 22.4943c-0.0375,-0.8734 0.1296,-0.5878 -0.2984,-1.0843 -0.0414,0.3013 -0.1032,0.2381 -0.0303,0.5838 0.1028,0.4878 0.0236,0.156 0.3287,0.5005z"/>
  <path class="fil41" d="M27.9101 5.7661c-0.0811,-0.0258 -0.2259,-0.128 -0.2418,-0.082 -0.0111,0.032 -0.1026,-0.1016 -0.1129,-0.137 -0.0113,-0.0382 -0.0011,-0.1299 0.0159,-0.1918l-0.225 0.5579c1.1586,0.2388 0.0933,0.0645 0.5638,-0.1471z"/>
 </g>
</svg>
